<svg width="48" height="48" viewBox="0 0 48 48" fill="none" xmlns="http://www.w3.org/2000/svg">
<path d="M3.21752 2.38623H0.428426C0.191493 2.38623 0 2.57772 0 2.81466V25.056C0 25.2929 0.191493 25.4844 0.428426 25.4844H3.2186C3.45554 25.4844 3.64703 25.2929 3.64703 25.056V2.81574C3.64703 2.57881 3.45445 2.38623 3.21752 2.38623Z" fill="#171717"/>
<path d="M8.23751 6.05841H11.0277C11.2646 6.05841 11.4561 5.86691 11.4561 5.62998V2.8398C11.4561 2.60287 11.2646 2.41138 11.0277 2.41138H8.23751C8.00058 2.41138 7.80908 2.60287 7.80908 2.8398V5.62998C7.80908 5.86583 8.00058 6.05841 8.23751 6.05841Z" fill="#FFB521"/>
<path opacity="0.6" d="M47.4491 35.8979H44.6589C44.422 35.8979 44.2305 36.0894 44.2305 36.3264V39.1166C44.2305 39.3535 44.422 39.545 44.6589 39.545H47.4491C47.686 39.545 47.8775 39.3535 47.8775 39.1166V36.3264C47.8786 36.0905 47.686 35.8979 47.4491 35.8979Z" fill="#171717"/>
<path d="M27.2669 22.621C27.2669 22.8579 27.4584 23.0494 27.6954 23.0494H30.4866C30.7236 23.0494 30.915 22.8579 30.915 22.621V15.3366C30.915 11.272 28.5024 9.02602 25.1562 9.02602C23.3667 9.02602 22.3931 9.55181 21.4854 10.809V8.91134C21.4854 8.6744 21.2939 8.48291 21.0569 8.48291H18.2397C18.0028 8.48291 17.8113 8.6744 17.8113 8.91134V22.6199C17.8113 22.8568 18.0028 23.0483 18.2397 23.0483H21.0569C21.2939 23.0483 21.4854 22.8568 21.4854 22.6199V15.87C21.4854 13.4899 22.4169 12.2068 24.3891 12.2068C26.3084 12.2068 27.2669 13.4899 27.2669 15.87V22.621V22.621Z" fill="#171717"/>
<path d="M21.0684 25.5354H18.2512C18.0143 25.5354 17.8228 25.7269 17.8228 25.9639V32.7137C17.8228 35.0939 16.5949 36.377 14.6237 36.377C12.7044 36.377 11.4505 35.0939 11.4505 32.7137V25.5354V8.91231C11.4505 8.67538 11.259 8.48389 11.0221 8.48389H8.23082C7.99388 8.48389 7.80239 8.67538 7.80239 8.91231V25.5354H7.7959V33.2493C7.7959 37.3139 10.2139 39.5599 13.5602 39.5599C15.3496 39.5599 16.9151 38.7571 17.8228 37.5011V39.6735C17.8228 39.9104 18.0143 40.1019 18.2512 40.1019H21.0684C21.3054 40.1019 21.4969 39.9104 21.4969 39.6735V25.9639C21.4969 25.7269 21.3054 25.5354 21.0684 25.5354Z" fill="#171717"/>
<path d="M35.2988 25.5195C33.2497 25.5195 31.7253 26.5505 30.9388 27.7049V25.9458C30.9388 25.7088 30.7473 25.5173 30.5104 25.5173H27.705C27.4681 25.5173 27.2766 25.7088 27.2766 25.9458V45.1935C27.2766 45.4305 27.4681 45.622 27.705 45.622H30.5104C30.7473 45.622 30.9388 45.4305 30.9388 45.1935V37.4061C31.7491 38.5118 33.2259 39.5677 35.2988 39.5677C38.6818 39.5677 41.3259 36.743 41.3259 32.4944C41.327 28.2458 38.6818 25.5195 35.2988 25.5195ZM34.4181 36.5471C32.6309 36.5471 30.9399 35.1223 30.9399 32.5442C30.9399 29.965 32.6309 28.5412 34.4181 28.5412C36.2292 28.5412 37.9202 29.9163 37.9202 32.4955C37.9202 35.0736 36.2281 36.5471 34.4181 36.5471Z" fill="#171717"/>
<path d="M47.5703 23.0408C47.9414 23.0408 48.1372 22.6027 47.8894 22.3257L42.0375 15.789L47.8559 9.19596C48.1004 8.919 47.9035 8.48408 47.5346 8.48408H44.6405C44.5215 8.48408 44.4079 8.53384 44.3268 8.6204L38.7313 14.6194V2.80636C38.7313 2.56942 38.5398 2.37793 38.3029 2.37793H35.4997C35.2628 2.37793 35.0713 2.56942 35.0713 2.80636V22.6124C35.0713 22.8493 35.2628 23.0408 35.4997 23.0408H38.3029C38.5398 23.0408 38.7313 22.8493 38.7313 22.6124V16.8784L44.2857 22.9034C44.3668 22.991 44.4815 23.0419 44.6005 23.0419H47.5703V23.0408Z" fill="#171717"/>
</svg>
